<svg xmlns="http://www.w3.org/2000/svg" xmlns:xlink="http://www.w3.org/1999/xlink" xml:space="preserve" version="1.1" style="shape-rendering:geometricPrecision;text-rendering:geometricPrecision;image-rendering:optimizeQuality;" viewBox="0 0 17639 22048.75" x="0px" y="0px" fill-rule="evenodd" clip-rule="evenodd"><defs><style type="text/css">
   
    .fil0 {fill:black;fill-rule:nonzero}
    .fil1 {fill:black;fill-rule:nonzero}
   
  </style></defs><g><g><path class="fil0" d="M4470 8985c-29,-5 -49,-32 -44,-61 5,-29 32,-48 61,-43 41,7 52,14 63,21l0 0c5,3 10,7 76,17 6,1 34,-54 61,-109 20,-38 39,-77 60,-107l0 0c45,-63 97,-94 165,-45 77,55 59,214 39,401 -5,36 -9,73 -12,102l-5 52c-16,164 -32,325 -53,432 -22,107 -58,170 -118,158 -197,-39 -192,-253 -187,-422 1,-75 3,-137 3,-137 -79,-14 -89,-18 -117,-29l-18 -7c-27,-10 -41,-41 -31,-68 10,-27 41,-41 68,-31l20 8c19,8 26,10 96,23 90,15 87,119 84,243 -3,131 -7,295 103,317 15,3 -16,-32 -7,-76 21,-100 36,-259 52,-421l5 -52c5,-41 8,-73 12,-103 17,-154 31,-285 5,-304 -2,-1 -9,8 -18,21l0 0c-17,24 -34,58 -51,92 -45,90 -90,179 -172,166 -88,-13 -104,-23 -118,-32l1 -1c-2,-1 -4,-2 -23,-5z"/><path class="fil0" d="M6021 9154c169,139 275,421 291,653 6,83 0,161 -17,225 -20,71 -55,126 -108,158l0 0c-50,30 -112,36 -186,10 -147,-49 -288,-192 -385,-376 -90,-171 -142,-378 -126,-579 5,-55 23,-97 49,-130 26,-31 59,-52 97,-64 35,-11 75,-15 115,-11 92,7 193,50 270,114zm186 660c-14,-208 -106,-458 -253,-579 -61,-50 -140,-84 -212,-90 -27,-2 -52,0 -74,7 -19,6 -35,16 -47,30 -14,16 -23,40 -25,71 -15,181 32,368 113,522 85,161 205,284 326,325 42,15 75,13 98,-1l0 0c27,-16 47,-50 60,-95 14,-53 19,-118 14,-190z"/><path class="fil0" d="M5338 8719c-132,-20 -269,-45 -412,-77 -125,-28 -253,-62 -382,-103 92,937 -169,1517 -585,1804 -219,151 -479,220 -753,218 -270,-3 -553,-75 -822,-208 -715,-352 -1338,-1133 -1351,-2159l0 -39c-127,-54 -202,-145 -236,-242 -20,-55 -26,-113 -22,-168 6,-55 22,-108 48,-150 86,-140 164,-120 241,-134 72,-482 178,-785 387,-925 219,-147 529,-106 1006,106 64,28 167,76 221,100 145,-58 305,-126 476,-199 1012,-429 2393,-1015 3573,-846 211,30 858,179 1364,325 370,106 673,219 711,303 125,274 81,425 -68,492 -265,121 -929,-156 -1407,-356 -191,-80 -351,-146 -432,-167 -1161,-291 -2275,267 -2936,598 -146,74 -271,136 -373,178 -20,8 -47,18 -76,29 380,176 860,423 988,885 171,68 334,119 492,157 147,36 289,62 429,81 3,-9 6,-18 11,-26l0 -1c192,-347 592,-554 1054,-673 674,-173 1483,-159 1944,-120 596,51 1214,135 1728,336 528,206 945,533 1121,1067 59,180 353,94 495,49 70,-22 146,-43 253,-83 381,-141 990,-394 1699,-735 526,-252 1107,-553 1692,-894 37,-21 69,-36 94,-47 6,-3 11,-5 21,-10l1 0c244,-122 463,-210 666,-193 214,18 399,146 555,458 166,333 125,569 21,712 -51,71 -118,119 -184,145 -71,28 -145,31 -203,11 -76,-26 -126,-85 -126,-176 0,-78 -30,-251 -80,-395 -31,-90 -66,-163 -98,-179 -12,-6 -19,-9 -23,-9 -4,0 -11,3 -23,9 -433,217 -925,492 -1430,775 -827,462 -1687,944 -2416,1235 -62,26 -152,58 -240,87 -88,29 -172,55 -223,68 -117,29 -205,59 -200,185 12,1096 -566,1704 -1376,1987 -370,130 -789,181 -1220,163 -430,-18 -873,-105 -1295,-253 -1240,-435 -2300,-1397 -2302,-2687 -1,-108 6,-188 8,-211l-5 -98zm-373 -248c161,36 319,63 470,85l71 10 13 257 0 7c0,0 -9,82 -9,198 3,1204 1008,2109 2185,2521 405,143 831,226 1243,243 411,18 807,-31 1156,-153 740,-259 1253,-777 1242,-1784 -1,-24 18,-118 21,-134l2 -16 10 -91 5 -57 55 -18c0,0 154,-51 257,-77 50,-13 129,-37 210,-64 81,-27 167,-58 230,-83 716,-286 1572,-766 2395,-1226 502,-281 991,-555 1437,-778 38,-19 68,-28 102,-28 34,0 64,9 102,28 78,39 140,150 185,279 56,161 89,360 89,452 0,5 3,8 8,10 20,6 49,3 82,-9 38,-15 76,-43 106,-84 71,-98 94,-270 -36,-530 -124,-248 -260,-348 -412,-361 -163,-14 -356,65 -574,174l0 1c-4,2 -15,7 -29,13 -20,9 -47,21 -77,39 -587,341 -1173,644 -1704,900 -715,343 -1329,598 -1713,741 -115,42 -209,75 -277,96 -299,106 -594,154 -701,-173 -156,-475 -536,-769 -1017,-957 -494,-193 -1096,-275 -1679,-324 -449,-38 -1236,-52 -1885,114 -332,85 -626,217 -817,416 -8,9 -17,18 -25,28 -76,92 -75,98 -116,204 -15,40 -44,73 -108,65 -165,-20 -335,-49 -514,-93 -177,-43 -362,-102 -557,-182l-43 -17 -10 -45c-97,-440 -612,-676 -981,-845 -46,-22 -90,-42 -117,-55l-196 -92 205 -71c0,0 205,-71 271,-98 94,-39 217,-100 360,-172 683,-342 1834,-918 3057,-612 95,24 260,93 457,175 449,188 1072,448 1268,358 49,-22 52,-99 -21,-259 -13,-29 -273,-112 -598,-206 -500,-144 -1136,-291 -1341,-320 -1132,-162 -2487,413 -3480,834 -184,78 -356,152 -514,214l-36 14 -34 -16c0,0 -160,-74 -253,-115 -416,-185 -675,-229 -836,-120 -166,111 -252,390 -317,846l-6 39c-42,148 -188,16 -252,120 -13,20 -21,46 -24,74 -2,30 1,62 13,94 22,63 78,123 181,152l63 18 2 167c11,952 590,1677 1253,2004 246,121 503,187 746,189 238,2 463,-57 651,-186 376,-261 607,-808 502,-1714l-24 -206 134 49c167,60 332,106 494,143z"/><path class="fil0" d="M5664 9476c-1,-23 -2,-47 -2,-68 -5,-127 -8,-193 54,-219 87,-36 202,57 285,182 36,54 66,113 86,170 21,61 30,119 20,166 -13,61 -52,102 -126,108 -5,0 -11,0 -19,1 -91,2 -162,-30 -213,-87 -48,-55 -76,-131 -83,-221 -1,-9 -2,-20 -2,-32zm103 -72c1,20 2,42 2,69 1,7 1,16 2,26 6,68 25,123 57,160 30,34 74,53 131,51 2,0 7,0 14,-1 18,-1 28,-11 31,-24 6,-27 -1,-66 -17,-110 -16,-47 -43,-99 -74,-146 -57,-86 -124,-156 -156,-143 -6,3 7,39 10,118z"/><path class="fil0" d="M11336 9921c7,-472 -173,-929 -227,-1065l-10 -25 165 -63 9 24c57,143 246,624 239,1131l-176 -2z"/><path class="fil0" d="M12159 8854c24,74 43,168 52,269 9,91 10,187 0,279l-105 -11c9,-85 8,-174 0,-258 -8,-93 -26,-179 -48,-247l101 -32z"/><polygon class="fil0" points="2516,6668 3582,7133 3512,7295 2446,6829 "/><path class="fil1" d="M11065 9613c-51,-305 -128,-562 -238,-774 -108,-209 -249,-376 -430,-503 -249,-175 -555,-294 -886,-377 -334,-84 -693,-132 -1045,-166 -693,-65 -1397,-27 -1920,128 -446,133 -757,349 -808,657 -57,342 -39,619 40,875 78,258 218,498 403,767 283,412 728,755 1251,997 531,246 1141,386 1741,385 123,0 247,-11 370,-31 412,-69 800,-251 1085,-531 284,-279 465,-656 464,-1116 0,-99 -9,-203 -27,-311zm-144 -822c115,222 195,489 248,805 19,113 28,222 28,328 1,491 -192,893 -495,1191 -301,296 -709,488 -1142,560 -127,21 -257,32 -387,32 -616,2 -1241,-142 -1786,-394 -539,-249 -999,-605 -1293,-1033 -190,-277 -335,-526 -417,-796 -83,-272 -103,-564 -43,-924 59,-353 398,-596 882,-740 536,-159 1254,-199 1960,-132 357,34 722,83 1061,168 342,86 660,210 921,394 195,137 347,316 463,541z"/><path class="fil0" d="M2106 6772c119,64 303,140 511,227 500,209 1142,477 1432,794 122,134 188,318 221,532 31,207 30,443 19,685 -17,335 -100,600 -230,800 -108,164 -247,284 -406,360 -159,75 -338,108 -526,99 -269,-13 -555,-111 -827,-289 -402,-262 -762,-661 -918,-1249 -124,-469 -117,-1059 106,-1796 7,-23 16,-44 26,-63 49,-91 131,-140 222,-159 86,-18 182,-9 266,16 38,12 73,26 104,43zm470 325c-209,-88 -394,-165 -519,-232 -26,-13 -55,-25 -85,-35 -69,-20 -146,-28 -214,-14 -63,13 -118,46 -151,106 -7,13 -13,28 -18,44 -217,716 -225,1286 -105,1738 148,559 491,938 874,1188 256,167 524,259 774,271 170,9 332,-21 475,-89l0 0c143,-67 267,-174 364,-322 120,-184 197,-432 212,-747 12,-236 12,-465 -18,-665 -29,-194 -88,-360 -194,-476 -274,-300 -904,-562 -1395,-767z"/></g></g><text x="0" y="17654" fill="#000000" font-size="5px" font-weight="bold" font-family="'Helvetica Neue', Helvetica, Arial-Unicode, Arial, Sans-serif">Created by Alexander Panasovsky</text><text x="0" y="17659" fill="#000000" font-size="5px" font-weight="bold" font-family="'Helvetica Neue', Helvetica, Arial-Unicode, Arial, Sans-serif">from the Noun Project</text></svg>