<svg xmlns="http://www.w3.org/2000/svg" xmlns:xlink="http://www.w3.org/1999/xlink" version="1.1" x="0px" y="0px" viewBox="0 0 91 113.75" enable-background="new 0 0 91 91" xml:space="preserve"><g><path d="M19.573,2.263l0.023,1.279c0.207,10.653,1.697,62.339,11.34,69.048v15.941h28.551V72.59   c9.643-6.709,11.133-58.395,11.34-69.048l0.023-1.279H19.573z M56.978,82.164h-5.879l-2.092-1.465h-7.275l-2.092,1.465h-6.193   v-8.938h23.531V82.164z M33.446,86.021v-1.348h6.986l2.09-1.465h5.693l2.092,1.465h6.67v1.348H33.446z M57.759,70.717H32.665   c-6.141-2.35-9.412-35.114-10.338-59.661h36.832V8.545h-36.92c-0.041-1.284-0.078-2.549-0.105-3.772H68.29   c-0.027,1.224-0.064,2.488-0.105,3.772h-5.26v2.511h5.172C67.171,35.603,63.897,68.367,57.759,70.717z"/><path d="M45.212,30.735c-5.773,0-10.471,4.698-10.471,10.472c0,5.775,4.697,10.473,10.471,10.473   c5.775,0,10.473-4.697,10.473-10.473C55.685,35.434,50.987,30.735,45.212,30.735z M45.212,49.172c-4.391,0-7.961-3.573-7.961-7.965   c0-4.39,3.57-7.961,7.961-7.961s7.963,3.571,7.963,7.961C53.175,45.599,49.603,49.172,45.212,49.172z"/><rect x="43.956" y="25.013" width="2.51" height="3.877"/><rect x="57.53" y="39.952" width="3.877" height="2.51"/><rect x="43.958" y="53.525" width="2.51" height="3.879"/><rect x="29.017" y="39.954" width="3.879" height="2.511"/><rect x="54.038" y="29.189" transform="matrix(0.7073 0.7069 -0.7069 0.7073 38.1886 -29.9763)" width="2.51" height="3.877"/><rect x="53.353" y="50.034" transform="matrix(-0.7069 -0.7074 0.7074 -0.7069 58.0973 126.6549)" width="3.879" height="2.511"/><rect x="33.876" y="49.35" transform="matrix(-0.7071 -0.7071 0.7071 -0.7071 23.707 112.3979)" width="2.511" height="3.878"/><rect x="33.193" y="29.872" transform="matrix(0.7074 0.7069 -0.7069 0.7074 32.2833 -15.7232)" width="3.877" height="2.51"/></g><text x="0" y="106" fill="#000000" font-size="5px" font-weight="bold" font-family="'Helvetica Neue', Helvetica, Arial-Unicode, Arial, Sans-serif">Created by BomSymbols</text><text x="0" y="111" fill="#000000" font-size="5px" font-weight="bold" font-family="'Helvetica Neue', Helvetica, Arial-Unicode, Arial, Sans-serif">from the Noun Project</text></svg>