<svg xmlns="http://www.w3.org/2000/svg" xmlns:xlink="http://www.w3.org/1999/xlink" xml:space="preserve" version="1.1" style="shape-rendering:geometricPrecision;text-rendering:geometricPrecision;image-rendering:optimizeQuality;" viewBox="0 0 17639 22048.75" x="0px" y="0px" fill-rule="evenodd" clip-rule="evenodd"><defs><style type="text/css">
   
    .fil0 {fill:black;fill-rule:nonzero}
   
  </style></defs><g><g><path class="fil0" d="M8485 3783c-101,-916 -745,-1345 -1135,-1606l-1 0c-118,-78 -214,-143 -275,-206 -92,-96 -149,-184 -176,-263 -30,-91 -22,-172 18,-241 37,-65 101,-116 186,-154 124,-54 299,-83 505,-87l3 175c-182,4 -334,28 -437,74 -51,22 -87,49 -105,79 -15,26 -16,58 -3,98 18,55 62,120 136,197 46,48 136,108 246,182l0 0c417,277 1103,735 1213,1732l-175 20z"/><path class="fil0" d="M8644 1402l-1787 0c-78,0 -110,35 -147,75 -15,16 -29,32 -37,39 -204,204 -278,222 -422,255 -48,11 -104,24 -174,47 -28,10 -61,42 -90,80 -35,47 -60,96 -60,117 0,301 976,755 1511,1005 131,61 236,110 303,146 783,427 931,575 932,576l26 26 14 11547 -175 0 -15 -11470c-66,-52 -278,-204 -866,-524 -54,-30 -161,-80 -293,-141 -572,-267 -1613,-752 -1613,-1165 0,-55 39,-147 96,-222 47,-63 109,-120 175,-142 82,-27 140,-40 189,-52 112,-25 169,-39 338,-207 17,-17 24,-25 31,-33 66,-72 122,-134 277,-134l1787 0 0 177z"/><path class="fil0" d="M8530 3727c39,-709 792,-1223 1293,-1566 184,-126 333,-227 383,-294 43,-58 69,-108 79,-151 13,-52 0,-94 -31,-128 -39,-43 -106,-78 -188,-104 -174,-57 -407,-78 -616,-79l1 -175c225,1 477,23 669,86 110,36 203,86 264,153 70,77 100,172 72,288 -16,66 -51,137 -110,215 -68,91 -226,200 -424,334 -472,323 -1182,809 -1216,1429l-176 -8z"/><path class="fil0" d="M8622 1226c165,0 743,2 1206,7 310,3 570,6 622,9 176,12 274,107 375,206 54,52 108,105 173,138 29,14 77,26 128,39 188,48 413,106 413,390 0,413 -1042,898 -1613,1165 -133,61 -239,111 -293,141 -769,419 -972,556 -973,557l-98 -146c1,0 212,-143 987,-566 66,-36 172,-85 302,-146 536,-250 1511,-704 1511,-1005 0,-148 -152,-186 -280,-219 -59,-15 -114,-29 -162,-53 -90,-45 -155,-108 -218,-169 -77,-75 -152,-149 -263,-156 -54,-3 -308,-7 -612,-10 -464,-4 -1041,-7 -1205,-7l0 -175z"/><path class="fil0" d="M5864 2100c-473,140 -1080,357 -1529,621 -313,184 -547,388 -593,597 -91,407 -195,788 -297,1162 -279,1021 -544,1991 -477,3283 9,192 -153,987 -356,1976 -404,1969 -970,4729 -678,4813 223,64 166,690 146,914 -1,15 -2,27 -4,51 -6,81 -20,146 -32,202 -25,116 -37,176 158,269 110,53 503,148 792,137 68,-3 128,-12 174,-29 35,-12 59,-28 68,-48 4,-8 6,-19 6,-32 -2,-43 87,-364 180,-670 88,-289 182,-573 208,-609 24,-32 51,-47 81,-64 28,-15 62,-34 69,-83l1 -6 2 -5c19,-64 64,-354 122,-734 139,-902 355,-2307 535,-2581 26,-39 60,-154 94,-292 55,-220 106,-487 127,-615l174 28c-22,131 -74,405 -130,629 -39,155 -80,289 -118,347 -158,241 -371,1623 -508,2510 -58,379 -102,668 -126,753 -23,128 -96,169 -156,203 -13,7 -24,14 -25,14 -15,21 -99,283 -182,556 -88,292 -174,587 -173,612 2,43 -6,81 -22,115 -32,65 -90,110 -167,138 -64,23 -142,35 -228,39 -314,12 -750,-95 -874,-154 -320,-153 -298,-259 -254,-464 11,-51 23,-110 28,-179l5 -54c17,-186 64,-705 -20,-729 -448,-129 137,-2981 554,-5017 201,-977 362,-1762 353,-1932 -68,-1320 200,-2303 483,-3338 102,-372 205,-751 295,-1154 59,-264 324,-503 676,-710 464,-273 1085,-496 1568,-639l50 169z"/><path class="fil0" d="M1930 14629c227,-64 650,-71 1027,-10 314,52 603,153 738,311l-135 114c-104,-123 -354,-206 -631,-251 -354,-58 -745,-53 -951,5l-48 -169z"/><path class="fil0" d="M1887 15823c27,-25 60,-46 97,-63 162,-75 432,-77 687,-30 255,46 502,143 617,266 25,27 45,55 58,84l-159 73c-6,-12 -15,-24 -27,-37 -89,-95 -298,-173 -520,-213 -224,-41 -454,-42 -583,17 -20,9 -37,20 -50,31l-120 -128z"/><path class="fil0" d="M6540 2674c35,-34 91,-33 125,2 33,35 32,91 -3,125 -400,386 -789,1076 -1096,1829 -337,827 -573,1728 -618,2390 -4,49 -46,85 -94,82 -49,-3 -85,-45 -82,-94 47,-680 288,-1601 631,-2444 315,-774 718,-1485 1137,-1890z"/><path class="fil0" d="M7763 3284c21,-44 74,-62 118,-41 36,18 55,59 47,97l4 0c20,168 127,1064 -30,1985 -120,706 -74,1466 -45,1949 10,167 18,302 17,395 0,49 -40,88 -89,87 -48,0 -87,-40 -87,-89 2,-83 -6,-217 -17,-382 -29,-492 -76,-1263 47,-1989 153,-895 49,-1771 29,-1936 -4,-34 -6,-52 6,-76zm165 56c-2,7 -4,14 -7,21 -11,23 10,-20 11,-21l-4 0z"/><path class="fil0" d="M9378 3309c23,-43 77,-58 119,-34 43,23 58,77 34,119 -63,113 -92,584 -102,1149 -17,911 21,2056 48,2389 9,108 21,183 33,255 23,133 44,257 37,534 -1,48 -42,86 -90,85 -49,-1 -87,-41 -86,-90 6,-259 -13,-374 -34,-500 -13,-77 -27,-157 -36,-270 -27,-334 -65,-1486 -48,-2406 11,-590 46,-1090 125,-1231z"/><path class="fil0" d="M4788 10640c-71,267 -21,703 31,1145 55,473 110,952 22,1274 -16,58 -106,385 -177,702 -23,103 -89,330 -74,538l12 59c33,167 722,419 1579,619 813,190 1770,321 2473,280l10 175c-720,43 -1696,-90 -2523,-284 -854,-199 -1558,-475 -1692,-704 -83,-143 9,-571 43,-721 71,-318 163,-651 179,-710 80,-289 26,-751 -27,-1208 -53,-458 -106,-910 -27,-1210l171 45z"/><path class="fil0" d="M4698 13336c23,-3 40,3 70,16 227,98 2076,891 3851,786l10 176c-1817,108 -3700,-701 -3931,-800 0,0 46,-7 24,-4l-6 -38 -18 42 18 -42 -18 -136z"/><path class="fil0" d="M11479 1932c476,162 968,344 1358,558 406,222 704,481 773,790 90,403 194,782 295,1154 283,1035 551,2018 483,3338 -8,170 153,955 353,1932 417,2036 1002,4888 554,5017 -84,24 -37,543 -20,729l5 54c5,69 18,128 28,179 44,205 66,311 -254,464 -124,59 -559,166 -874,154 -86,-4 -164,-16 -228,-39 -77,-28 -135,-73 -166,-138 -17,-34 -25,-72 -23,-115 1,-25 -84,-320 -173,-612 -83,-273 -167,-535 -182,-556 -237,-321 -335,-1058 -433,-1794 -92,-692 -184,-1384 -382,-1686 -40,-61 -88,-215 -132,-389 -56,-222 -108,-484 -124,-606l175 -22c14,114 65,367 120,586 40,156 80,291 108,334 220,336 315,1048 410,1760 94,714 189,1427 400,1713 27,36 120,320 208,609 93,306 182,627 181,670 -1,13 1,24 5,32 10,20 34,36 68,48 46,17 107,26 175,29 288,11 681,-84 792,-137 194,-93 182,-153 157,-269 -12,-56 -26,-121 -32,-202 -1,-24 -3,-36 -4,-51 -20,-224 -77,-850 147,-914 291,-84 -275,-2844 -678,-4813 -203,-989 -366,-1784 -356,-1976 66,-1292 -199,-2262 -477,-3283 -103,-374 -207,-755 -297,-1162 -56,-251 -322,-474 -686,-673 -378,-208 -861,-387 -1331,-546l57 -167z"/><path class="fil0" d="M12674 4389c21,-44 73,-62 117,-41 44,21 62,74 41,118 -159,330 -266,788 -333,1252 -102,692 -116,1389 -95,1689l0 6c0,166 -2,377 -5,591 -7,469 -13,954 14,1384 15,238 28,404 44,555 16,151 36,288 65,467 8,48 -24,93 -72,101 -48,8 -93,-25 -101,-73 -30,-183 -51,-323 -67,-476 -17,-155 -30,-323 -45,-563 -27,-433 -20,-923 -14,-1397 3,-188 5,-374 5,-587 -21,-311 -6,-1021 96,-1723 70,-478 181,-954 350,-1303z"/><path class="fil0" d="M15204 14815c-236,-39 -529,-41 -831,9 -262,44 -531,127 -772,259l-84 -155c260,-141 547,-231 827,-277 322,-54 636,-52 889,-9l-29 173z"/><path class="fil0" d="M15188 15947c-15,-20 -42,-37 -79,-51 -123,-48 -322,-55 -521,-27 -199,28 -394,90 -510,180 -40,31 -69,64 -82,100l-164 -64c26,-66 74,-125 138,-175 141,-110 368,-184 594,-215 226,-32 458,-21 609,37 65,26 118,61 154,107l-139 108z"/><path class="fil0" d="M10699 2729c409,395 775,1029 1064,1725 330,795 561,1673 637,2360l-175 19c-74,-672 -300,-1531 -625,-2312 -280,-675 -633,-1289 -1023,-1665l122 -127z"/><path class="fil0" d="M12559 10620c80,300 28,746 -24,1198 -52,450 -105,906 -26,1195 16,59 108,392 179,710 62,274 101,543 60,668l3 0c-43,243 -671,551 -1561,764 -733,177 -1652,299 -2565,279l3 -176c898,20 1801,-100 2522,-273 822,-198 1397,-449 1428,-625l11 -61c-6,-275 -49,-434 -72,-538 -72,-317 -161,-644 -177,-702 -89,-322 -34,-795 20,-1261 50,-436 100,-866 29,-1133l170 -45z"/><path class="fil0" d="M12458 13505c12,-2 38,-3 45,-2l-36 -59 -9 61zm45 -2c3,1 3,1 2,2 -135,83 -1411,864 -3950,809l3 -176c2488,54 3725,-703 3855,-783 26,-16 40,-24 71,-19l-17 108 36 59z"/><path class="fil0" d="M4337 4507c-22,-44 -3,-97 41,-118 43,-21 96,-3 117,41 168,349 279,825 349,1303 103,702 118,1412 97,1723 0,213 2,399 5,587 6,474 13,964 -15,1397 -15,240 -27,408 -44,563 -17,153 -37,293 -67,476 -8,48 -53,81 -101,73 -48,-8 -81,-53 -73,-101 30,-179 50,-316 66,-467 16,-151 29,-317 44,-555 27,-430 20,-915 14,-1384 -3,-214 -6,-425 -6,-591l1 -6c21,-300 6,-997 -95,-1689 -68,-464 -174,-922 -333,-1252z"/></g></g><text x="0" y="17654" fill="#000000" font-size="5px" font-weight="bold" font-family="'Helvetica Neue', Helvetica, Arial-Unicode, Arial, Sans-serif">Created by Alexander Panasovsky</text><text x="0" y="17659" fill="#000000" font-size="5px" font-weight="bold" font-family="'Helvetica Neue', Helvetica, Arial-Unicode, Arial, Sans-serif">from the Noun Project</text></svg>