<svg xmlns="http://www.w3.org/2000/svg" xmlns:xlink="http://www.w3.org/1999/xlink" xml:space="preserve" version="1.1" style="shape-rendering:geometricPrecision;text-rendering:geometricPrecision;image-rendering:optimizeQuality;" viewBox="0 0 17639 22048.75" x="0px" y="0px" fill-rule="evenodd" clip-rule="evenodd"><defs><style type="text/css">
   
    .fil1 {fill:black}
    .fil0 {fill:black;fill-rule:nonzero}
   
  </style></defs><g><g><path class="fil0" d="M1345 9208c-3,-52 -7,-108 -10,-168 -3,-52 -5,-108 -7,-165l-2 -41c-65,-1949 614,-3567 1763,-4715 1147,-1146 2763,-1823 4574,-1893l42 -2c99,-3 198,-4 296,-3 1860,19 3281,812 4253,2054 968,1236 1488,2916 1548,4716 5,153 7,307 6,463 0,7 1,19 3,30 5,43 11,86 -16,136 -30,56 -74,61 -118,67l0 0c-6,0 -13,1 -13,1 -947,308 -2743,757 -4673,1062 -1391,220 -2853,365 -4118,326 -83,-2 -163,-5 -240,-9 -82,-4 -159,-9 -231,-14 -249,-17 -489,-44 -719,-79 -221,-34 -430,-77 -625,-129 -215,-57 -414,-126 -595,-207 -175,-80 -334,-171 -473,-275 -132,-99 -247,-210 -341,-333 -93,-121 -166,-253 -217,-398 -23,-65 -43,-133 -57,-206 -15,-71 -25,-143 -30,-218zm166 -177c3,51 6,106 10,165 5,68 13,133 26,195 13,62 30,123 51,182 45,128 110,244 191,350 84,111 187,211 307,300 128,96 275,180 439,254 172,77 362,143 568,198 191,51 394,92 607,125 222,35 457,60 704,77 79,6 155,11 228,14 80,4 158,7 236,10 1253,38 2704,-106 4087,-324 1918,-303 3703,-750 4644,-1056 10,-3 19,-5 28,-7l-1 -7c-2,-17 -4,-34 -4,-54 1,-152 0,-305 -5,-456 -59,-1764 -567,-3408 -1511,-4614 -940,-1201 -2316,-1968 -4116,-1986 -95,-1 -191,0 -289,3l-42 2c-1765,68 -3340,726 -4456,1842 -1116,1115 -1775,2687 -1711,4584l1 41c2,51 5,105 8,162z"/><path class="fil0" d="M7728 2226c45,11 95,24 151,39 52,14 101,29 147,43 1632,506 2554,1818 3092,3326 534,1495 689,3181 786,4461l-176 13c-96,-1269 -249,-2941 -776,-4415 -521,-1461 -1410,-2731 -2977,-3217 -49,-15 -96,-29 -142,-41 -42,-12 -90,-24 -145,-37l40 -172z"/><path class="fil0" d="M7751 2389c-1339,759 -2130,1932 -2551,3254 -546,1715 -474,3682 -169,5332l-173 31c-309,-1672 -382,-3670 174,-5416 434,-1362 1250,-2571 2633,-3354l86 153z"/><path class="fil0" d="M4652 10821c222,304 441,631 667,968 1019,1520 2168,3235 3910,3436 780,90 1349,-179 2114,-541 664,-313 1471,-695 2684,-978 405,-94 750,-161 1037,-217 336,-66 593,-116 771,-175 288,-96 361,-225 257,-538 -243,-729 -1063,-1603 -1738,-2323 -294,-314 -561,-598 -745,-834l138 -108c178,227 443,510 735,821 687,733 1521,1622 1777,2389 146,440 41,623 -368,760 -193,64 -453,114 -794,181 -284,55 -626,122 -1030,216 -1195,279 -1993,656 -2649,965 -791,374 -1380,652 -2209,557 -1822,-211 -2996,-1961 -4036,-3513 -227,-338 -447,-666 -663,-963l142 -103z"/><path class="fil0" d="M3905 4509c96,10 170,63 212,140 38,71 48,163 22,260 -26,97 -84,182 -157,241 -80,65 -178,100 -274,90 -96,-9 -170,-62 -212,-139 -38,-71 -48,-164 -22,-260 26,-97 84,-182 157,-242 80,-65 178,-100 274,-90zm32 234c-17,-32 -45,-54 -79,-57 -35,-4 -73,11 -106,38 -39,32 -71,80 -87,136 -15,57 -10,109 11,147 17,32 45,54 80,57 34,4 72,-11 105,-38 39,-32 71,-80 87,-137 15,-56 10,-108 -11,-146z"/><path class="fil0" d="M8030 5030c96,0 184,40 247,105 65,66 106,159 106,260 0,102 -41,195 -106,261 -63,65 -151,105 -247,105 -96,0 -183,-40 -247,-105 -65,-66 -105,-159 -105,-261 0,-101 40,-194 105,-260 64,-65 151,-105 247,-105zm138 234c-35,-36 -84,-58 -138,-58 -54,0 -102,22 -137,58 -33,34 -54,80 -54,131 0,52 21,98 54,132 35,36 83,58 137,58 54,0 103,-22 138,-58 33,-34 53,-80 53,-132 0,-51 -20,-97 -53,-131z"/><path class="fil0" d="M11833 4572c75,42 134,110 169,186 35,78 46,165 24,243 -5,21 -13,40 -23,58 -29,52 -73,89 -126,109 -51,19 -110,21 -169,4 -23,-7 -46,-17 -70,-30 -75,-42 -134,-111 -169,-187 -36,-77 -47,-165 -25,-243 6,-20 14,-39 24,-57 29,-53 73,-90 126,-109 51,-19 109,-21 168,-4 23,7 47,17 71,30zm37 246c-23,-49 -60,-92 -107,-118 -13,-8 -27,-13 -40,-17 -29,-9 -56,-8 -78,0 -21,7 -38,22 -50,43 -4,8 -7,17 -10,27 -13,44 -6,95 16,142 23,49 60,93 107,119 13,7 27,13 40,17 29,9 56,8 78,0 20,-8 38,-22 49,-44 5,-7 8,-16 11,-27 13,-43 5,-95 -16,-142z"/><path class="fil0" d="M7514 2476l54 -26 41 -19 -45 -96 -41 20 -55 26 46 95zm-2803 8495l-17 -100 -104 17 17 101 104 -18zm-34 -205l-16 -104 -105 16 17 105 104 -17zm-32 -208l-15 -105 -105 15 15 105 105 -15zm-30 -209l-14 -105 -105 14c5,35 9,70 14,105l105 -14zm-28 -210l-13 -104 -105 13c4,35 9,70 13,105l105 -14zm-26 -209c-4,-35 -8,-70 -11,-105l-106 12 12 105 105 -12zm-23 -210l-10 -105 -106 11 11 105 105 -11zm-20 -210c-3,-35 -6,-70 -9,-105l-106 9c3,35 6,71 9,106l106 -10zm-18 -210c-3,-35 -5,-70 -8,-105l-105 7c2,36 5,71 7,106l106 -8zm-15 -210c-2,-35 -4,-71 -6,-106l-106 6 6 106 106 -6zm-12 -211c-2,-35 -3,-70 -5,-105l-105 4c1,35 3,71 4,106l106 -5zm-9 -210c-1,-36 -2,-71 -3,-106l-105 3 3 106 105 -3zm-5 -211c-1,-35 -1,-70 -1,-106l-106 1c0,36 1,71 1,106l106 -1zm-2 -211c0,-35 0,-70 1,-105l-106 -1c-1,35 -1,70 -1,106l106 0zm2 -211c1,-35 1,-70 2,-105l-105 -3c-1,35 -2,71 -3,106l106 2zm6 -210c1,-35 2,-70 4,-106l-106 -4c-1,35 -3,70 -4,106l106 4zm9 -211c2,-35 4,-70 7,-105l-106 -7c-2,35 -4,71 -6,106l105 6zm14 -210c3,-35 6,-70 9,-105l-105 -9c-3,35 -6,71 -9,106l105 8zm19 -209c3,-35 7,-70 11,-105l-105 -12c-4,35 -8,71 -11,106l105 11zm23 -209c4,-35 8,-70 13,-105l-104 -14c-5,35 -10,70 -14,105l105 14zm28 -209c5,-35 11,-69 16,-104l-104 -17c-6,35 -11,70 -17,105l105 16zm33 -208c6,-34 13,-69 19,-103l-104 -20c-7,35 -13,70 -19,105l104 18zm39 -206c7,-35 14,-69 21,-103l-103 -23c-7,35 -15,70 -22,105l104 21zm44 -206c8,-34 16,-68 25,-102l-103 -26 -12 49 -13 55 103 24zm50 -204c9,-34 19,-67 28,-101l-102 -29 -9 34 -19 69 102 27zm57 -202l14 -46 16 -55 -101 -31 -17 55 -14 47 102 30zm62 -200l20 -59 14 -41 -99 -35 -15 42 -20 59 100 34zm70 -199l13 -35 13 -35 11 -28 -99 -38 -11 28 -13 35 -13 37 99 36zm76 -195l20 -48 20 -49 -97 -42 -21 50 -20 49 98 40zm83 -193l11 -25 16 -33 17 -37 -95 -46 -18 38 -16 34 -11 25 96 44zm90 -189l18 -36 17 -33 13 -24 -94 -50 -13 25 -17 34 -19 37 95 47zm97 -186l27 -47 25 -44 -92 -53 -26 45 -26 48 92 51zm105 -181l16 -26 19 -32 20 -31 -90 -57 -19 32 -20 32 -17 27 91 55zm112 -177l25 -38 21 -31 12 -18 -86 -60 -13 18 -22 32 -25 38 88 59zm119 -172l14 -19 22 -31 26 -34 -84 -65 -27 36 -23 31 -14 19 86 63zm126 -167l26 -32 24 -30 16 -20 -81 -67 -17 20 -25 31 -26 32 83 66zm134 -161l14 -17 25 -29 30 -33 -78 -71 -31 34 -26 30 -14 16 80 70zm140 -156l30 -31 26 -28 17 -16 -75 -75 -17 18 -28 28 -30 31 77 73zm147 -149l20 -19 28 -27 28 -26 -72 -78 -29 27 -29 28 -19 19 73 76zm153 -143l41 -35 38 -33 -68 -81 -40 34 -41 36 70 79zm160 -136l34 -27 31 -25 16 -13 -65 -84 -16 14 -33 25 -34 28 67 82zm164 -129l30 -22 33 -24 22 -16 -62 -86 -22 16 -34 25 -30 22 63 85zm170 -122l28 -19 35 -23 24 -17 -58 -88 -25 17 -35 23 -28 19 59 88zm175 -115l29 -18 36 -23 24 -15 -54 -90 -25 15 -37 23 -29 18 56 90zm179 -109l33 -19 38 -21 21 -12 -51 -93 -22 12 -38 22 -33 19 52 92zm184 -102l41 -21 52 -27 -48 -95 -53 28 -42 22 50 93z"/><path class="fil0" d="M7657 2419l22 -18 30 -23 31 -24 -64 -84 -31 24 -31 24 -22 17 65 84zm-2343 8480c-7,-35 -14,-69 -21,-104l-104 21c7,35 14,69 21,104l104 -21zm-41 -207c-7,-34 -13,-69 -20,-103l-104 18c7,35 13,70 20,105l104 -20zm-38 -207c-6,-35 -12,-69 -17,-104l-105 16c6,35 12,70 18,105l104 -17zm-33 -208c-6,-35 -11,-70 -16,-104l-105 14c5,35 11,70 16,105l105 -15zm-30 -209c-5,-35 -9,-70 -14,-104l-105 13c5,35 9,70 14,105l105 -14zm-26 -209c-4,-35 -8,-70 -12,-105l-105 11c4,36 8,71 12,106l105 -12zm-22 -209c-4,-35 -7,-70 -10,-105l-105 9c3,35 6,70 9,106l106 -10zm-19 -210c-2,-35 -5,-70 -7,-105l-106 7c2,35 5,70 8,106l105 -8zm-14 -211c-2,-35 -4,-70 -6,-105l-106 6c2,35 4,70 6,106l106 -7zm-11 -210c-1,-35 -2,-70 -4,-105l-105 3c1,35 2,71 4,106l105 -4zm-6 -210c-1,-36 -2,-71 -2,-106l-106 1c0,36 1,71 2,107l106 -2zm-3 -211c0,-35 0,-70 0,-106l-106 0c0,35 0,71 0,106l106 0zm1 -211c1,-35 2,-70 2,-105l-105 -3c-1,36 -2,71 -3,106l106 2zm6 -210c1,-35 2,-70 4,-105l-106 -6c-2,36 -3,71 -4,107l106 4zm9 -211c1,-35 4,-70 6,-105l-105 -7c-2,35 -5,71 -7,106l106 6zm14 -210c2,-35 5,-70 8,-105l-105 -9c-3,35 -6,71 -9,106l106 8zm18 -210c3,-35 6,-70 10,-104l-105 -12c-4,35 -7,71 -11,106l106 10zm22 -209c4,-35 8,-70 13,-105l-105 -13c-5,35 -9,70 -13,106l105 12zm26 -209c5,-35 10,-69 15,-104l-104 -16c-5,35 -11,70 -15,105l104 15zm32 -208c5,-35 10,-69 17,-104l-104 -18c-7,35 -12,70 -18,105l105 17zm35 -208c6,-34 13,-69 20,-103l-104 -20c-7,34 -14,69 -20,104l104 19zm41 -206c7,-34 14,-69 21,-103l-103 -23c-8,35 -15,69 -22,104l104 22zm45 -206c7,-34 16,-68 24,-102l-103 -25c-9,34 -16,69 -24,103l103 24zm49 -204c9,-34 18,-68 27,-102l-102 -27c-9,34 -18,68 -27,103l102 26zm55 -203c10,-34 20,-67 30,-101l-102 -30c-10,34 -20,68 -29,102l101 29zm60 -202c11,-33 21,-67 32,-100l-100 -33c-12,34 -22,68 -33,102l101 31zm65 -200c11,-33 23,-66 35,-99l-100 -35c-12,33 -24,67 -35,100l100 34zm70 -198c13,-33 25,-65 38,-98l-99 -38c-13,33 -25,66 -38,99l99 37zm76 -196c13,-32 26,-65 40,-97l-98 -41c-13,32 -27,65 -40,98l98 40zm81 -194c14,-32 28,-64 43,-96l-97 -44c-14,33 -29,65 -43,98l97 42zm86 -191c15,-32 30,-64 46,-95l-95 -47c-16,32 -31,64 -46,96l95 46zm92 -189c16,-32 32,-63 48,-94l-93 -49c-17,31 -33,63 -49,95l94 48zm98 -186l31 -56 20 -36 -92 -53c-18,31 -35,63 -52,94l93 51zm103 -183l19 -32 35 -58 -91 -55 -35 59 -19 32 91 54zm109 -180c19,-29 38,-59 57,-88l-89 -58c-19,30 -39,60 -57,90l89 56zm115 -176l31 -46 28 -40 -87 -61 -28 41 -32 47 88 59zm120 -172l39 -53 23 -31 -84 -64 -24 32 -40 54 86 62zm126 -168l24 -31 41 -51 -83 -66 -17 22 -24 29 -25 32 84 65zm131 -163l33 -39 35 -41 -80 -70 -36 42 -33 40 81 68zm137 -159l43 -47 28 -31 -78 -72 -29 32 -42 47 78 71zm143 -154l27 -28 46 -47 -75 -75 -21 21 -26 27 -28 29 77 73zm147 -149l39 -37 37 -36 -72 -77 -39 37 -38 37 73 76zm153 -144l23 -20 28 -26 28 -24 -70 -79 -28 24 -28 26 -24 21 71 78zm158 -138l37 -31 44 -36 -67 -82 -45 37 -37 31 68 81z"/><path class="fil0" d="M7826 2321c-30,-18 -61,-36 -91,-54l-54 90 90 55 55 -91zm3721 7850l-10 -93 -105 11 9 93 106 -11zm-21 -198l-11 -105 -105 11c4,35 7,70 11,105l105 -11zm-22 -211l-11 -105 -105 11 11 106 105 -12zm-22 -210l-12 -106 -105 12 11 105 106 -11zm-24 -211l-12 -105 -105 12 12 105 105 -12zm-24 -210c-4,-35 -8,-71 -12,-106l-105 13c4,35 8,70 12,105l105 -12zm-25 -211c-4,-35 -9,-70 -13,-105l-105 13c4,35 8,70 13,105l105 -13zm-27 -210l-14 -105 -105 14 14 105 105 -14zm-28 -210l-15 -105 -104 15 14 104 105 -14zm-30 -210l-15 -105 -105 16 16 104 104 -15zm-32 -210l-16 -105 -105 17c6,35 11,70 17,104l104 -16zm-33 -210c-6,-35 -12,-69 -18,-104l-104 18c6,34 12,69 17,104l105 -18zm-36 -209l-19 -104 -104 19c6,35 12,69 18,104l105 -19zm-39 -209c-7,-34 -13,-69 -20,-104l-104 21c7,34 14,69 20,103l104 -20zm-41 -208c-7,-35 -14,-69 -22,-104l-103 22c7,34 15,69 21,103l104 -21zm-44 -208c-8,-34 -15,-69 -23,-103l-103 23c7,34 15,69 23,103l103 -23zm-47 -207c-8,-34 -16,-69 -25,-103l-103 25c9,34 17,68 25,102l103 -24zm-51 -206c-8,-35 -17,-69 -26,-103l-102 27c9,34 17,68 26,102l102 -26zm-53 -206c-10,-34 -19,-68 -29,-102l-102 28c10,34 19,68 28,102l103 -28zm-58 -205c-10,-34 -20,-68 -30,-102l-102 31c11,34 21,67 30,101l102 -30zm-62 -203c-10,-34 -21,-68 -32,-102l-101 33c11,34 22,67 32,101l101 -32zm-66 -203c-11,-33 -22,-67 -34,-100l-100 35c12,33 23,66 34,99l100 -34zm-70 -201c-12,-33 -24,-66 -37,-99l-99 37c12,33 25,66 37,99l99 -37zm-75 -199c-13,-33 -26,-66 -40,-99l-98 40c14,33 27,65 39,98l99 -39zm-81 -197c-13,-33 -27,-66 -42,-98l-97 43c15,32 28,64 42,96l97 -41zm-85 -195c-15,-33 -30,-65 -45,-97l-96 46c15,31 30,63 44,95l97 -44zm-92 -193c-16,-32 -32,-64 -48,-95l-94 48c16,32 32,63 47,94l95 -47zm-97 -190c-17,-31 -34,-62 -51,-94l-93 52c17,31 34,62 50,92l94 -50zm-104 -186c-18,-31 -36,-62 -54,-92l-91 55c18,30 36,60 53,90l92 -53zm-111 -183c-19,-30 -38,-60 -57,-90l-89 58c20,30 38,59 57,89l89 -57zm-117 -179c-20,-29 -40,-58 -61,-87l-86 61c20,29 40,58 60,86l87 -60zm-124 -174c-21,-28 -43,-57 -65,-85l-83 66c21,27 42,55 63,83l85 -64zm-132 -168c-22,-28 -45,-56 -68,-83l-80 70c14,16 28,33 43,51l23 29 82 -67zm-139 -163c-16,-18 -32,-37 -49,-55l-23 -24 -77 73 22 23 21 23 28 31 78 -71zm-146 -156l-33 -33 -22 -22 -21 -21 -74 76 21 20 22 22 32 32 75 -74zm-154 -150l-37 -34 -42 -37 -70 79 18 17 23 20 37 33 71 -78zm-161 -141l-43 -35 -40 -33 -65 83 39 32 42 35 67 -82zm-168 -133l-24 -18 -26 -19 -36 -26 -61 86 35 25 25 19 24 18 63 -85zm-174 -124l-32 -22c-19,-12 -38,-25 -58,-37l-57 89 56 37 32 20 59 -87zm-179 -116c-30,-19 -61,-38 -91,-56l-55 90c30,18 60,37 89,55l57 -89zm-181 -112c-31,-18 -61,-36 -91,-54l-55 90c31,18 61,37 91,55l55 -91zm-182 -109c-31,-17 -61,-36 -91,-54l-54 91c30,18 60,37 91,54l54 -91zm-182 -108c-31,-18 -61,-35 -91,-54l-54 91 91 54 54 -91z"/><path class="fil0" d="M8108 2312l-58 -22 -42 -16 -36 100 42 15 57 22 37 -99zm4119 7696l-4 -31 -105 12 4 32 105 -13zm-16 -136l-13 -105 -105 12 12 105 106 -12zm-25 -211l-12 -105 -105 13 12 105 105 -13zm-25 -210l-12 -105 -105 12 12 105 105 -12zm-24 -210c-5,-35 -9,-70 -13,-105l-105 12c5,35 8,70 13,105l105 -12zm-26 -210l-12 -106 -105 13 12 105 105 -12zm-25 -211l-14 -105 -105 14 14 104 105 -13zm-27 -210l-14 -105 -105 14 14 105 105 -14zm-28 -210c-5,-35 -10,-70 -15,-105l-105 15c5,35 10,69 15,104l105 -14zm-30 -210l-15 -105 -105 16 15 104 105 -15zm-31 -210c-6,-35 -11,-70 -17,-105l-104 17c5,35 11,70 16,104l105 -16zm-34 -209c-5,-35 -11,-70 -17,-105l-105 18c6,34 12,69 18,104l104 -17zm-35 -210c-7,-35 -13,-69 -19,-104l-104 19c6,35 12,69 18,104l105 -19zm-39 -209c-6,-34 -13,-69 -20,-104l-104 21c7,34 14,69 20,103l104 -20zm-41 -208c-7,-35 -14,-69 -22,-104l-103 22c7,35 14,69 22,103l103 -21zm-44 -208c-8,-34 -16,-69 -24,-104l-103 25c8,34 16,68 24,102l103 -23zm-48 -207c-8,-34 -17,-69 -25,-103l-103 26c10,32 17,69 25,102l103 -25zm-52 -206c-9,-35 -18,-69 -27,-103l-102 28c9,34 18,68 27,102l102 -27zm-56 -206c-9,-34 -19,-68 -29,-102l-102 30c10,34 20,68 30,101l101 -29zm-60 -204c-10,-34 -21,-67 -32,-101l-101 32c11,34 22,67 32,101l101 -32zm-65 -203c-11,-33 -23,-67 -35,-100l-99 35c11,33 22,66 34,99l100 -34zm-70 -201c-13,-33 -25,-66 -38,-100l-98 39c12,32 24,65 36,98l100 -37zm-76 -199c-13,-33 -27,-66 -40,-99l-98 41c13,33 27,65 39,98l99 -40zm-82 -197c-14,-32 -28,-65 -43,-97l-96 43c14,32 28,64 42,97l97 -43zm-88 -194l-24 -50 -22 -46 -95 47c16,31 31,62 46,94l95 -45zm-94 -192l-23 -45 -26 -49 -94 50c17,31 33,62 49,93l94 -49zm-101 -188l-22 -40 -30 -53 -92 54c18,30 35,60 52,91l92 -52zm-107 -185l-21 -34 -18 -29 -17 -27 -90 56 17 27 18 29 21 34 90 -56zm-115 -180l-19 -29 -20 -29 -21 -31 -86 61 20 29 19 29 19 29 88 -59zm-121 -176l-18 -25 -21 -28 -25 -33 -84 64 24 32 20 28 18 24 86 -62zm-129 -171l-17 -21 -22 -28 -28 -34 -81 67 27 34 21 27 17 21 83 -66zm-136 -165l-16 -19 -23 -27 -31 -35 -78 71 29 34 39 45 80 -69zm-142 -160l-17 -18 -25 -26 -32 -33 -75 74 31 32 24 26 17 18 77 -73zm-149 -153l-19 -19 -26 -25 -32 -30 -72 77 30 29 26 25 19 19 74 -76zm-156 -147l-23 -21 -27 -24 -30 -26 -69 81 29 24 27 24 23 21 70 -79zm-161 -140l-30 -25 -29 -23 -24 -19 -66 83 24 18 28 23 29 25 68 -82zm-167 -133l-40 -30 -46 -34 -62 86 44 33 40 29 64 -84zm-173 -126l-22 -16 -31 -21 -35 -24 -59 88 34 23 31 21 22 16 60 -87zm-177 -119l-39 -25 -52 -32 -55 90 51 31 38 25 57 -89zm-182 -113l-26 -15 -35 -20 -32 -18 -52 92 32 18 34 19 25 16 54 -92zm-186 -105l-52 -28 -43 -22 -48 94 41 22 52 27 50 -93zm-190 -98l-47 -23 -49 -24 -45 96 48 23 46 23 47 -95zm-192 -92l-46 -21 -52 -22 -42 97 51 22 45 20 44 -96zm-196 -85l-49 -21 -50 -20 -38 99 48 19 49 20 40 -97z"/><path class="fil0" d="M8784 10789c-19,-29 -37,-59 -55,-89l-91 55c19,30 37,61 57,91l89 -57zm5905 -113c-35,3 -70,7 -106,11l12 105c34,-4 69,-7 104,-11l-10 -105zm-212 23c-35,4 -70,9 -105,13l14 105c34,-5 69,-9 104,-13l-13 -105zm-211 28c-35,5 -70,10 -105,16l16 104c35,-5 70,-10 105,-15l-16 -105zm-210 33c-35,5 -70,11 -105,18l19 104c34,-6 69,-12 104,-18l-18 -104zm-209 37c-35,6 -70,12 -105,19l21 104c34,-6 69,-13 103,-19l-19 -104zm-209 40c-35,7 -69,14 -104,21l22 104c34,-7 69,-14 103,-21l-21 -104zm-208 44c-34,7 -69,15 -104,23l24 103c34,-8 68,-15 103,-23l-23 -103zm-207 46c-34,8 -69,16 -103,24l24 103c34,-8 69,-16 103,-24l-24 -103zm-207 49c-34,8 -68,17 -103,25l26 103c34,-8 68,-17 102,-25l-25 -103zm-205 51l-103 27 26 102c34,-9 68,-17 103,-26l-26 -103zm-206 53l-102 28 27 102 102 -27 -27 -103zm-205 55l-102 28 28 102 102 -28 -28 -102zm-204 57l-102 28 29 102 101 -28 -28 -102zm-204 57c-34,10 -68,20 -102,30l29 101 102 -29 -29 -102zm-204 59l-101 30 29 101 102 -29 -30 -102zm-203 60l-102 30 31 101 101 -30 -30 -101zm-203 60c-34,10 -68,20 -101,30l30 102c34,-10 67,-21 101,-31l-30 -101zm-203 61l-101 30 30 101c34,-10 68,-20 101,-30l-30 -101zm-203 60l-101 30 30 102 102 -30 -31 -102zm-202 60l-102 30 30 101 101 -29 -29 -102zm-203 59l-102 29 29 102c34,-10 68,-19 102,-29l-29 -102zm-203 57c-34,9 -68,18 -102,27l26 102c35,-9 69,-18 103,-27l-27 -102zm-204 52c-34,9 -68,17 -102,24l23 104c35,-8 69,-16 104,-25l-25 -103zm-204 45c-33,6 -58,8 -91,6l-9 105c43,4 77,0 119,-7l-19 -104zm-183 -13c-31,-10 -61,-23 -90,-37l-48 94c33,17 70,32 106,44l32 -101zm-176 -87c-28,-19 -56,-39 -83,-60l-65 84c29,22 59,44 90,64l58 -88zm-162 -125c-26,-23 -51,-46 -75,-70l-74 76c26,25 52,49 79,73l70 -79zm-148 -144c-24,-25 -48,-51 -71,-77l-79 70c24,27 48,54 73,80l77 -73zm-139 -156c-22,-26 -44,-53 -66,-81l-82 66c22,28 44,56 67,83l81 -68zm-129 -163c-22,-28 -42,-56 -63,-85l-86 62c21,29 42,58 64,86l85 -63zm-123 -170c-20,-29 -40,-58 -59,-87l-88 58c20,30 40,60 60,89l87 -60z"/><path class="fil0" d="M8325 10834l-57 -89 -90 57 58 90 89 -58zm6670 153l-23 3 14 105 22 -3 -13 -105zm-128 17c-35,5 -70,10 -105,16l16 104c34,-5 69,-10 104,-15l-15 -105zm-210 32c-35,6 -70,11 -105,17l18 105c34,-6 69,-12 104,-17l-17 -105zm-210 36c-35,6 -70,12 -104,19l19 104c35,-7 69,-13 104,-19l-19 -104zm-209 39c-35,6 -69,13 -104,20l21 104c35,-7 69,-14 103,-21l-20 -103zm-208 42c-35,7 -69,14 -104,22l23 103c34,-7 68,-15 103,-22l-22 -103zm-208 44c-34,8 -69,16 -103,24l24 103c34,-8 68,-16 103,-23l-24 -104zm-206 48c-35,8 -69,16 -104,24l25 103 103 -24 -24 -103zm-207 49c-34,9 -68,17 -103,26l26 102c34,-8 68,-17 102,-25l-25 -103zm-206 52c-34,8 -68,17 -102,26l26 103c34,-9 69,-18 103,-27l-27 -102zm-205 53l-102 27 27 103 102 -28 -27 -102zm-205 55l-102 28 28 102 102 -28 -28 -102zm-204 57l-102 28 29 102 102 -29 -29 -101zm-204 57l-102 30 30 101 101 -29 -29 -102zm-204 59l-101 30 30 102c33,-11 67,-20 101,-30l-30 -102zm-203 60l-101 30 30 102 101 -31 -30 -101zm-203 61l-101 30 30 101 102 -30 -31 -101zm-203 61l-101 30 31 102 101 -31 -31 -101zm-202 61l-101 31 30 101 102 -31 -31 -101zm-203 62l-101 30 31 102 101 -31 -31 -101zm-202 61l-101 30 30 102 101 -31 -30 -101zm-203 61l-101 29 30 102 101 -30 -30 -101zm-202 59l-102 29 29 101 102 -28 -29 -102zm-204 57c-33,9 -67,18 -101,27l26 102c35,-9 69,-18 103,-27l-28 -102zm-203 52c-34,9 -68,16 -102,24l23 103c34,-7 69,-15 104,-24l-25 -103zm-204 45c-34,6 -61,11 -96,12l0 0 1 105c41,0 75,-6 114,-13l-19 -104zm-191 4c-33,-5 -64,-13 -95,-24l-34 101c36,12 72,21 110,28l19 -105zm-187 -61c-31,-14 -60,-30 -89,-48l-55 91c32,19 65,37 98,53l46 -96zm-174 -103c-28,-20 -56,-40 -83,-62l-66 83c29,23 58,44 87,65l62 -86zm-162 -128c-26,-23 -51,-46 -76,-70l-73 76c26,25 52,49 79,73l70 -79zm-150 -143c-24,-25 -48,-51 -71,-76l-78 71c24,27 48,53 73,78l76 -73zm-141 -154c-23,-26 -45,-53 -68,-80l-81 68c23,27 46,54 69,81l80 -69zm-134 -161c-22,-27 -43,-55 -65,-83l-84 65c22,28 44,56 66,84l83 -66zm-128 -166c-21,-28 -41,-57 -62,-85l-86 62c21,28 42,57 63,86l85 -63zm-123 -171c-20,-29 -40,-57 -60,-86l-87 59c19,30 40,59 60,88l87 -61zm-119 -174c-19,-29 -39,-58 -58,-87l-88 58c19,29 39,59 58,88l88 -59z"/><path class="fil0" d="M7886 10952l-57 -89 -89 57 57 89 89 -57zm7379 327c-23,2 -46,3 -68,5l8 106 67 -6 -7 -105zm-175 15c-35,3 -70,7 -106,11l12 105c35,-4 70,-8 105,-11l-11 -105zm-212 23c-35,5 -70,9 -105,14l15 105c34,-5 69,-9 104,-14l-14 -105zm-211 30c-35,5 -70,10 -105,16l18 105c34,-6 69,-12 103,-17l-16 -104zm-210 34c-35,6 -69,13 -104,19l19 104c35,-6 69,-13 104,-19l-19 -104zm-209 39c-35,7 -69,14 -104,22l22 103c34,-7 69,-14 103,-21l-21 -104zm-208 44c-35,7 -69,15 -104,23l24 103c34,-8 68,-15 103,-23l-23 -103zm-207 47c-35,8 -69,17 -103,25l25 103c34,-9 68,-17 102,-25l-24 -103zm-207 51c-34,8 -68,17 -102,26l26 103c34,-10 68,-18 103,-27l-27 -102zm-205 53c-34,10 -68,19 -103,28l29 102c34,-9 68,-18 101,-27l-27 -103zm-205 57c-34,9 -68,19 -102,29l30 102c33,-10 67,-20 101,-29l-29 -102zm-204 59c-34,10 -68,20 -101,30l30 101c34,-10 67,-20 101,-30l-30 -101zm-203 60l-101 32 31 101c34,-11 67,-21 101,-31l-31 -102zm-203 63l-101 32 33 101 100 -32 -32 -101zm-202 65l-100 33 33 100 100 -32 -33 -101zm-201 66c-33,10 -68,22 -101,33l34 100c33,-11 67,-23 100,-33l-33 -100zm-201 67l-101 33 34 101 101 -34 -34 -100zm-201 67l-100 35 34 100 100 -34 -34 -101zm-200 69l-100 34 34 100c33,-12 67,-23 100,-34l-34 -100zm-201 68l-100 35 35 100 100 -34 -35 -101zm-200 69l-100 34 34 100 100 -34 -34 -100zm-200 68l-100 33 33 101 101 -34 -34 -100zm-200 66l-101 33 33 101 100 -33 -32 -101zm-201 65c-34,11 -67,21 -101,31l31 102c34,-11 68,-21 101,-32l-31 -101zm-202 62c-33,10 -67,20 -101,29l29 102c34,-10 68,-20 102,-30l-30 -101zm-202 57c-34,9 -68,18 -102,26l26 103c34,-9 69,-18 103,-27l-27 -102zm-203 50c-34,8 -68,15 -102,21l19 104c36,-6 70,-14 106,-21l-23 -104zm-201 36c-32,2 -65,2 -96,-1l-11 105c37,4 77,4 114,2l-7 -106zm-194 -18c-32,-7 -64,-18 -95,-29l-37 99c35,13 71,24 107,33l25 -103zm-187 -68c-31,-15 -61,-31 -90,-48l-54 91c32,18 64,36 97,52l47 -95zm-177 -103c-28,-19 -56,-39 -84,-60l-64 85c29,21 59,43 89,63l59 -88zm-165 -124c-26,-22 -53,-45 -78,-68l-71 79c27,24 54,47 82,70l67 -81zm-155 -138c-25,-24 -50,-49 -74,-74l-75 75c25,25 50,50 76,75l73 -76zm-146 -149c-24,-25 -48,-51 -71,-77l-79 70c24,27 48,53 72,79l78 -72zm-140 -156c-23,-27 -45,-53 -68,-80l-81 67c23,28 45,55 69,82l80 -69zm-134 -162c-22,-27 -43,-55 -65,-82l-83 65c21,28 43,56 66,83l82 -66zm-129 -166c-21,-28 -42,-56 -62,-84l-86 62c21,29 43,58 64,86l84 -64zm-124 -169c-20,-29 -41,-57 -61,-86l-87 60c21,29 41,58 62,87l86 -61zm-121 -173c-20,-29 -39,-58 -59,-87l-88 59c20,29 40,59 60,88l87 -60zm-118 -175c-19,-29 -38,-58 -57,-88l-89 58c19,30 39,59 58,89l88 -59z"/><path class="fil0" d="M7409 11066l-57 -89 -89 57 57 89 89 -57zm8064 469c-29,4 -58,8 -88,13l17 104c28,-4 57,-8 86,-12l-15 -105zm-193 29c-35,6 -70,12 -105,18l19 104c34,-6 69,-12 104,-17l-18 -105zm-209 36c-35,7 -70,13 -105,20l20 104c35,-7 69,-13 104,-20l-19 -104zm-209 40c-35,7 -69,15 -104,22l22 103c34,-7 69,-14 103,-21l-21 -104zm-208 44c-35,8 -69,15 -104,23l24 103c34,-8 68,-15 103,-23l-23 -103zm-207 47c-35,8 -69,16 -104,24l25 103c35,-8 69,-16 103,-24l-24 -103zm-207 50c-34,8 -68,17 -103,25l27 103c34,-9 68,-17 102,-26l-26 -102zm-205 52c-35,9 -69,18 -103,27l27 102c34,-9 68,-18 102,-27l-26 -102zm-205 55c-35,9 -69,19 -103,28l29 102c34,-10 68,-19 102,-28l-28 -102zm-205 57c-34,10 -68,19 -102,29l30 102 101 -29 -29 -102zm-204 59c-33,9 -68,20 -101,30l30 102c34,-10 68,-21 101,-30l-30 -102zm-203 61c-34,10 -67,21 -101,31l31 101c34,-10 67,-21 101,-31l-31 -101zm-202 63c-34,10 -68,21 -101,32l32 100c33,-10 67,-21 100,-31l-31 -101zm-202 64l-101 32 32 101c34,-11 67,-22 101,-32l-32 -101zm-202 65l-101 33 33 101 101 -33 -33 -101zm-201 66l-101 34 34 100 100 -33 -33 -101zm-201 68l-101 33 34 101 100 -34 -33 -100zm-201 67l-100 35 34 100 100 -34 -34 -101zm-200 69c-34,11 -67,23 -101,34l35 100c33,-11 66,-23 100,-34l-34 -100zm-201 68l-100 35 35 100 100 -34 -35 -101zm-200 69l-100 34 34 100 100 -34 -34 -100zm-200 68l-100 34 34 100 100 -34 -34 -100zm-200 68l-101 33 33 100 101 -33 -33 -100zm-201 66l-101 32 33 101 101 -32 -33 -101zm-201 64c-34,11 -67,21 -101,32l31 101c34,-10 68,-21 102,-32l-32 -101zm-202 62c-33,10 -67,20 -101,30l30 102c34,-10 68,-20 102,-30l-31 -102zm-202 59c-34,9 -68,18 -101,27l26 103c35,-9 69,-19 103,-28l-28 -102zm-203 53c-34,8 -68,16 -102,24l0 0 23 103c34,-8 69,-16 104,-24l-25 -103zm-204 45c-33,7 -67,14 -100,17l11 106c37,-5 73,-12 109,-19l-20 -104zm-198 22c-33,-1 -66,-4 -99,-9l-17 104c37,6 75,10 112,11l4 -106zm-197 -30c-31,-9 -64,-20 -95,-32l-39 98c34,14 71,26 106,35l28 -101zm-188 -72c-31,-15 -61,-31 -91,-48l-52 92c32,18 64,35 96,51l47 -95zm-179 -101c-29,-19 -57,-39 -85,-59l-62 86c30,21 59,42 90,61l57 -88zm-168 -121c-27,-21 -54,-43 -80,-65l-69 80c28,24 56,46 84,69l65 -84zm-159 -134c-26,-23 -51,-47 -76,-71l-73 77c25,24 52,49 78,73l71 -79zm-151 -144c-24,-25 -49,-49 -73,-75l-77 73c25,26 50,51 75,77l75 -75zm-144 -151c-24,-26 -47,-52 -70,-78l-80 69c24,27 47,54 71,80l79 -71zm-139 -158c-23,-26 -45,-53 -68,-80l-81 67c22,27 45,55 68,82l81 -69zm-134 -162c-22,-27 -43,-55 -65,-82l-84 65c22,28 44,56 66,83l83 -66zm-129 -166c-21,-28 -43,-56 -64,-84l-84 63c21,29 42,57 63,85l85 -64zm-126 -169c-21,-28 -41,-56 -61,-85l-87 61c21,29 42,58 62,87l86 -63zm-122 -171c-20,-29 -40,-58 -60,-87l-88 60c21,29 41,59 61,88l87 -61zm-120 -174c-19,-29 -39,-58 -58,-87l-89 58c20,30 40,59 60,89l87 -60zm-117 -175c-19,-30 -38,-59 -57,-89l-89 58 58 89 88 -58z"/><path class="fil0" d="M6961 11067l-55 -90 -91 55 56 91 90 -56zm8850 828c-35,5 -69,10 -104,15l16 105c34,-5 69,-10 103,-15l-15 -105zm-209 32c-35,6 -70,12 -105,18l18 104c35,-6 69,-12 104,-18l-17 -104zm-210 36c-34,6 -69,13 -104,19l20 104c34,-6 69,-13 103,-19l-19 -104zm-208 40c-35,7 -70,14 -105,21l22 103c34,-7 69,-14 103,-20l-20 -104zm-208 43c-35,7 -70,15 -104,22l23 104c34,-8 68,-16 103,-23l-22 -103zm-208 46c-34,8 -69,16 -103,24l24 103c34,-8 69,-16 103,-24l-24 -103zm-207 48c-34,9 -68,17 -103,26l26 102c34,-8 68,-16 103,-25l-26 -103zm-206 52c-34,8 -68,17 -102,26l27 103c34,-9 68,-18 102,-27l-27 -102zm-205 53c-34,9 -68,19 -102,28l28 102c34,-9 68,-18 102,-27l-28 -103zm-205 56l-102 29 29 102 102 -29 -29 -102zm-204 58l-102 30 30 101c34,-10 68,-19 102,-29l-30 -102zm-203 60c-34,10 -68,20 -102,30l31 102 101 -31 -30 -101zm-203 61l-102 31 32 101 101 -31 -31 -101zm-203 63l-101 32 32 101 101 -32 -32 -101zm-202 64l-101 32 33 101 101 -32 -33 -101zm-201 65l-101 33 33 101 100 -33 -32 -101zm-202 66l-100 34 33 100c34,-11 67,-22 101,-33l-34 -101zm-201 68c-33,10 -67,22 -100,33l34 101c33,-12 67,-24 100,-34l-34 -100zm-200 67l-101 34 34 101 101 -34 -34 -101zm-201 69l-100 34 34 100 100 -34 -34 -100zm-200 68l-100 34 34 100 100 -34 -34 -100zm-200 69l-101 34 35 100 100 -34 -34 -100zm-201 68l-100 34 34 100 100 -34 -34 -100zm-200 68l-100 34 34 100 100 -34 -34 -100zm-200 67l-101 33 33 101 101 -33 -33 -101zm-201 66l-101 33 33 100 101 -32 -33 -101zm-201 64c-34,11 -67,22 -101,32l31 101 101 -32 -31 -101zm-202 62c-33,10 -67,20 -101,30l29 102c34,-10 68,-20 102,-30l-30 -102zm-202 59c-34,9 -68,18 -102,27l27 103c35,-9 69,-19 103,-28l-28 -102zm-203 54c-34,8 -68,16 -102,24l23 103c35,-8 70,-16 104,-25l-25 -102zm-204 47c-35,7 -69,13 -103,20l19 104c35,-7 70,-13 105,-21l-21 -103zm-201 31c-33,2 -65,0 -98,-3l-11 106c20,2 39,3 59,3 18,1 36,1 54,0l-4 -106zm-196 -19c-32,-7 -65,-16 -96,-27l-35 100c35,12 71,22 107,30l24 -103zm-190 -64c-31,-14 -62,-29 -92,-45l-50 93c32,17 65,33 98,48l44 -96zm-181 -96c-29,-18 -58,-37 -86,-57l-61 87c30,21 61,41 91,60l56 -90zm-170 -117c-28,-21 -55,-43 -82,-65l-67 82c28,23 56,45 85,67l64 -84zm-161 -132c-26,-23 -52,-46 -77,-70l-73 77c27,25 53,49 80,72l70 -79zm-153 -142c-25,-24 -49,-49 -74,-74l-76 74c25,25 50,50 76,75l74 -75zm-146 -150c-24,-25 -48,-51 -71,-77l-79 71c24,26 48,52 73,78l77 -72zm-140 -156c-23,-26 -46,-53 -69,-79l-81 68c23,27 46,54 70,81l80 -70zm-136 -160c-22,-27 -44,-55 -66,-82l-83 66c22,28 45,55 67,83l82 -67zm-131 -165c-22,-27 -43,-55 -64,-83l-84 64c21,28 43,56 64,84l84 -65zm-127 -167c-21,-28 -42,-57 -63,-85l-85 62c20,29 41,57 63,86l85 -63zm-124 -170c-21,-29 -41,-58 -61,-86l-87 60c20,29 41,58 61,87l87 -61zm-122 -173c-19,-29 -40,-58 -59,-87l-88 59c21,29 40,59 60,88l87 -60zm-118 -174c-20,-30 -39,-59 -58,-88l-89 58 59 88 88 -58zm-116 -177c-19,-29 -39,-59 -58,-88l-89 57c20,30 39,59 58,89l89 -58zm-114 -177c-19,-30 -38,-60 -57,-89l-89 56c18,30 37,60 56,90l90 -57zm-113 -179l-56 -90 -90 56 56 90 90 -56z"/><path class="fil0" d="M6518 11077c-16,-31 -31,-63 -46,-95l-96 45c16,32 31,64 46,96l96 -46zm9374 1183l-81 10 13 105 80 -10 -12 -105zm-187 24c-35,4 -70,9 -105,15l16 104c34,-5 69,-10 104,-14l-15 -105zm-210 31c-35,5 -70,11 -105,17l18 104c34,-6 69,-12 103,-17l-16 -104zm-210 35c-35,6 -70,12 -105,19l20 104c35,-6 69,-13 104,-19l-19 -104zm-209 39c-35,7 -69,14 -104,21l21 104c35,-7 69,-14 104,-21l-21 -104zm-208 43c-35,8 -69,15 -104,23l23 103c35,-7 69,-15 103,-22l-22 -104zm-208 47c-34,8 -68,16 -103,24l25 103c34,-8 68,-16 103,-24l-25 -103zm-206 50c-34,8 -69,17 -103,26l26 102c34,-9 69,-17 103,-26l-26 -102zm-206 52c-34,9 -68,19 -102,28l28 102c33,-9 67,-18 101,-27l-27 -103zm-205 56c-34,9 -68,19 -102,29l29 102c34,-10 68,-20 102,-29l-29 -102zm-204 58l-102 30 31 102 101 -30 -30 -102zm-203 61c-34,10 -68,20 -102,31l32 101c33,-11 67,-21 101,-31l-31 -101zm-203 62c-34,11 -67,22 -101,32l32 101c34,-11 67,-21 101,-32l-32 -101zm-202 65l-101 33 33 100 101 -32 -33 -101zm-202 66c-33,12 -67,23 -100,34l34 100 100 -33 -34 -101zm-200 68l-101 35 35 100 100 -34 -34 -101zm-201 70l-100 35 36 100 99 -35 -35 -100zm-199 71c-34,12 -67,24 -100,36l36 99c33,-12 66,-24 99,-36l-35 -99zm-200 72l-99 36 36 100 99 -37 -36 -99zm-199 73l-99 36 37 100 99 -37 -37 -99zm-198 73l-100 37 37 99 100 -37 -37 -99zm-199 74l-99 38 37 99 99 -38 -37 -99zm-198 75l-99 37 37 99 99 -37 -37 -99zm-198 74l-99 37 37 99 99 -37 -37 -99zm-198 74l-99 37 36 99 100 -37 -37 -99zm-198 74c-34,11 -67,24 -100,36l36 99c34,-12 67,-24 100,-36l-36 -99zm-199 72l-99 35 35 100 100 -35 -36 -100zm-199 70c-33,12 -66,23 -100,35l34 100c34,-11 67,-23 101,-35l-35 -100zm-200 68c-33,11 -66,22 -100,33l32 101c34,-11 68,-22 102,-33l-34 -101zm-200 64c-34,11 -67,21 -101,31l30 101c34,-10 68,-20 102,-30l-31 -102zm-202 59c-33,9 -67,18 -101,26l25 103c35,-9 69,-17 104,-27l-28 -102zm-201 49l-14 3 -14 2 -13 2 -28 4 -14 1 -16 2 7 105 20 -1 15 -2 16 -2 15 -2 15 -2 16 -3 14 -3 -19 -104zm-199 16c-34,-1 -67,-3 -101,-7l-13 105 24 3 16 1 15 1 16 1 15 1 24 1 4 -106zm-200 -24c-33,-7 -66,-16 -99,-26l-31 101c28,9 56,16 85,23l22 5 23 -103zm-195 -59c-32,-12 -63,-25 -95,-40l-44 97c33,15 66,29 100,42l39 -99zm-187 -85c-31,-16 -61,-33 -90,-50l-54 91c30,18 63,36 95,53l49 -94zm-178 -105c-29,-19 -58,-38 -86,-58l-61 86c29,21 59,41 89,61l58 -89zm-170 -120c-28,-20 -55,-42 -82,-64l-67 82c28,23 56,45 85,67l64 -85zm-162 -131c-26,-22 -52,-46 -78,-69l-71 78c26,24 53,48 80,71l69 -80zm-155 -140c-25,-24 -50,-49 -75,-73l-74 75c25,25 50,50 76,74l73 -76zm-148 -148c-24,-25 -49,-50 -72,-76l-78 72c24,26 49,52 73,78l77 -74zm-143 -153c-23,-26 -47,-53 -70,-79l-80 69c24,27 47,54 71,80l79 -70zm-138 -159c-22,-27 -45,-54 -67,-81l-82 67c23,28 45,55 68,82l81 -68zm-133 -163c-21,-27 -43,-55 -64,-82l-84 64c21,28 43,56 65,84l83 -66zm-128 -166c-21,-28 -42,-56 -63,-85l-85 63c21,29 42,57 63,85l85 -63zm-125 -170c-20,-28 -40,-57 -60,-86l-87 61c20,29 41,58 61,87l86 -62zm-120 -172c-20,-29 -40,-58 -59,-88l-88 59c20,30 39,59 59,88l88 -59zm-117 -175c-19,-30 -38,-59 -57,-89l-89 57c19,30 38,60 57,89l89 -57zm-113 -178c-19,-30 -37,-60 -56,-90l-90 55c18,31 37,61 56,91l90 -56zm-110 -180c-18,-30 -36,-60 -54,-90l-91 53c18,30 36,61 54,91l91 -54zm-106 -182c-18,-30 -35,-61 -52,-91l-93 51c18,31 35,62 53,93l92 -53zm-103 -184c-17,-30 -33,-61 -50,-92l-93 49c16,32 33,63 50,94l93 -51zm-98 -186c-16,-31 -32,-62 -48,-93l-95 47c16,32 32,63 49,95l94 -49z"/><path class="fil1" d="M7732 2094c200,0 362,87 362,194 0,18 6,50 -12,50l-699 4c-19,0 -14,-35 -14,-54 0,-107 162,-194 363,-194z"/></g></g><text x="0" y="17654" fill="#000000" font-size="5px" font-weight="bold" font-family="'Helvetica Neue', Helvetica, Arial-Unicode, Arial, Sans-serif">Created by Alexander Panasovsky</text><text x="0" y="17659" fill="#000000" font-size="5px" font-weight="bold" font-family="'Helvetica Neue', Helvetica, Arial-Unicode, Arial, Sans-serif">from the Noun Project</text></svg>