<svg xmlns="http://www.w3.org/2000/svg" xmlns:xlink="http://www.w3.org/1999/xlink" version="1.1" x="0px" y="0px" viewBox="0 0 100 125" style="enable-background:new 0 0 100 100;" xml:space="preserve"><g><path d="M92.6,57c0-23-18.3-41.8-41.1-42.6v-9C51.5,4.6,50.8,4,50,4s-1.5,0.7-1.5,1.5v9C25.7,15.2,7.4,34,7.4,57   c0,0.8,0.7,1.5,1.5,1.5s1.5-0.7,1.5-1.5c0-3.4,5.2-6.2,11.4-6.2c6.2,0,11.4,2.8,11.4,6.2c0,0.8,0.7,1.5,1.5,1.5s1.5-0.7,1.5-1.5   c0-2.8,5-5.8,12.4-6.2v34c0,4.5-3.7,8.2-8.2,8.2s-8.2-3.7-8.2-8.2c0-0.8-0.7-1.5-1.5-1.5s-1.5,0.7-1.5,1.5c0,6.2,5,11.2,11.2,11.2   s11.2-5,11.2-11.2v-34c7.4,0.4,12.4,3.4,12.4,6.2c0,0.8,0.7,1.5,1.5,1.5s1.5-0.7,1.5-1.5c0-3.4,5.2-6.2,11.4-6.2   c6.2,0,11.4,2.8,11.4,6.2c0,0.8,0.7,1.5,1.5,1.5S92.6,57.9,92.6,57z M78.3,47.8c-5.8,0-10.7,2.1-13,5.2c-2.7-3.1-8.5-5.2-15.3-5.2   c-6.8,0-12.6,2.1-15.3,5.2c-2.3-3.1-7.2-5.2-13-5.2c-4.4,0-8.3,1.2-10.9,3.2C13.7,32,30.2,17.4,50,17.4S86.3,32,89.2,51   C86.6,49,82.7,47.8,78.3,47.8z"/></g><text x="0" y="115" fill="#000000" font-size="5px" font-weight="bold" font-family="'Helvetica Neue', Helvetica, Arial-Unicode, Arial, Sans-serif">Created by Popular</text><text x="0" y="120" fill="#000000" font-size="5px" font-weight="bold" font-family="'Helvetica Neue', Helvetica, Arial-Unicode, Arial, Sans-serif">from the Noun Project</text></svg>