<svg xmlns="http://www.w3.org/2000/svg" xmlns:xlink="http://www.w3.org/1999/xlink" xml:space="preserve" version="1.1" style="shape-rendering:geometricPrecision;text-rendering:geometricPrecision;image-rendering:optimizeQuality;" viewBox="0 0 17639 22048.75" x="0px" y="0px" fill-rule="evenodd" clip-rule="evenodd"><defs><style type="text/css">
   
    .fil0 {fill:black;fill-rule:nonzero}
   
  </style></defs><g><g><path class="fil0" d="M8066 5424c0,49 -39,89 -87,89 -49,1 -89,-38 -89,-87 -1,-54 -1,-108 -2,-161 -5,-722 -8,-1103 -674,-1321 -73,-24 -146,-45 -224,-68 -548,-158 -1325,-382 -1358,-1128 -33,-748 644,-1219 1573,-1445 660,-160 1450,-198 2198,-125 750,74 1460,260 1956,547 548,317 842,756 670,1305 -189,599 -638,689 -1099,782 -579,116 -1178,236 -1153,1612 0,48 -38,88 -87,89 -48,1 -88,-38 -89,-86 -27,-1523 645,-1658 1295,-1788 409,-82 808,-162 965,-661 143,-455 -115,-826 -590,-1101 -474,-274 -1159,-453 -1885,-524 -729,-72 -1499,-35 -2139,121 -849,206 -1468,621 -1439,1266 27,620 733,824 1230,967 87,25 168,49 231,69 786,257 789,683 795,1488 0,51 1,104 2,160z"/><path class="fil0" d="M6328 2698c0,-29 24,-53 53,-53 29,0 53,24 53,53 -1,157 117,277 291,367 242,127 590,193 885,217 382,32 636,110 798,398 155,277 218,748 222,1570 0,29 -23,53 -52,53 -30,0 -53,-24 -53,-53 -4,-802 -63,-1258 -209,-1518 -139,-248 -368,-316 -715,-344 -306,-26 -668,-95 -925,-229 -208,-108 -349,-258 -348,-461z"/><path class="fil0" d="M11387 2728c13,-26 45,-37 71,-25 26,13 37,45 24,71 -290,596 -718,606 -1188,617 -460,11 -963,23 -1405,644 -293,413 -293,2029 -293,2882 0,128 0,238 -1,326l-106 9137c0,29 -24,52 -53,52 -29,0 -53,-24 -52,-53l105 -9137c1,-87 1,-198 2,-325 0,-865 0,-2503 312,-2943 472,-664 1003,-677 1488,-688 437,-10 834,-20 1096,-558z"/><polygon class="fil0" points="9224,4500 9255,16311 9149,16311 9118,4500 "/><path class="fil0" d="M5873 5911c-17,-23 -12,-56 12,-73 23,-17 56,-12 73,12 42,58 329,133 688,197 391,70 861,123 1198,126 50,1 82,16 82,16l31 16 -2 34c-9,133 -25,332 -84,500 -63,181 -174,326 -371,327 -139,0 -477,-14 -811,-69 -212,-36 -424,-89 -586,-166 -26,-12 -37,-44 -25,-70 13,-26 44,-38 70,-25 152,72 354,122 558,156 329,55 659,68 794,68 140,0 222,-114 271,-256 48,-137 66,-301 75,-425l-3 0c-343,-4 -820,-57 -1216,-128 -382,-69 -695,-158 -754,-240z"/><path class="fil0" d="M5868 11031c-28,-10 -42,-40 -32,-68 10,-27 40,-41 68,-31 182,67 447,128 727,178 368,67 764,115 1033,138 94,8 243,80 244,80l36 18 -7 39c-1,2 -87,486 -238,654 -215,240 -554,267 -907,201 -343,-64 -698,-215 -957,-341 -27,-12 -38,-44 -25,-70 13,-26 44,-37 70,-25 254,123 600,271 931,332 320,60 625,39 809,-167 107,-119 182,-447 205,-562 -44,-20 -120,-50 -170,-54 -269,-23 -668,-72 -1043,-139 -286,-51 -557,-114 -744,-183z"/><path class="fil0" d="M12904 5387c0,1 -97,580 -294,876l0 0 -56 83c-140,208 -209,312 -209,398 0,650 22,1309 45,1974 24,685 48,1377 48,2046 18,274 37,555 56,836 86,1279 172,2548 149,3840 -1,39 -12,69 -23,98 -3,8 -6,16 -8,21 -7,22 -15,43 -25,63l0 0c-10,19 -22,39 -36,60 -365,537 -2054,815 -3750,815 -734,0 -1471,-51 -2103,-155 -638,-104 -1171,-263 -1488,-478 -213,-145 -334,-318 -334,-519 0,-204 7,-385 19,-548 12,-163 28,-304 44,-429 113,-910 165,-1808 217,-2711 17,-296 34,-592 52,-880 3,-93 73,-2440 73,-2693l0 -1369c-129,-233 -225,-407 -299,-597 -76,-197 -129,-408 -169,-714l174 -22c39,290 88,489 159,673 72,184 168,358 300,595l11 21 0 1413c0,241 -73,2694 -73,2701l0 3c-19,300 -36,589 -53,878 -52,910 -104,1813 -217,2724 -16,124 -32,263 -43,420 -11,157 -19,334 -19,535 0,137 93,262 257,373 294,200 802,350 1417,451 621,101 1349,151 2075,151 1647,0 3275,-251 3605,-736 8,-12 16,-25 23,-40l0 0c6,-13 12,-26 16,-38 4,-12 7,-21 10,-30 6,-16 12,-31 12,-38 23,-1282 -62,-2549 -149,-3826 -19,-277 -38,-555 -56,-843l0 -5c0,-683 -24,-1365 -47,-2041 -24,-674 -47,-1343 -47,-1979 0,-138 80,-257 240,-495l56 -84 -1 0c177,-265 267,-806 268,-807l173 29z"/><path class="fil0" d="M5807 3230c-91,50 -198,103 -311,160 -577,290 -1346,677 -1317,1293 46,1003 -425,4607 -742,7031 -61,463 -116,884 -158,1217l-175 -22c46,-360 100,-768 158,-1218 317,-2418 787,-6012 741,-7001 -34,-729 794,-1145 1414,-1457 110,-55 213,-107 305,-158l85 155zm-2620 10459c-13,112 -15,138 -21,204 -4,50 -13,61 -10,67 140,300 473,429 818,454 148,11 298,2 435,-21 136,-23 260,-60 359,-106 116,-54 191,-115 195,-171l175 13c-9,126 -122,237 -296,318 -111,52 -251,94 -404,119 -151,26 -315,35 -477,24 -401,-29 -793,-187 -965,-556 -10,-22 -12,-75 -5,-155 5,-64 20,-202 33,-319l163 129z"/><path class="fil0" d="M7241 2733c-34,35 -89,36 -124,2 -35,-34 -36,-90 -2,-125 332,-340 993,-502 1663,-504 696,-2 1409,168 1780,489 36,32 40,87 9,124 -32,37 -88,41 -124,9 -339,-293 -1007,-448 -1665,-446 -628,2 -1240,147 -1537,451z"/><path class="fil0" d="M11694 10950c28,-10 58,4 68,31 11,27 -3,58 -30,68 -188,71 -459,135 -745,189 -373,70 -772,123 -1043,148 -50,4 -126,35 -170,55 23,115 97,442 204,561 185,204 490,222 810,160 331,-65 677,-215 930,-340 26,-13 58,-2 70,24 13,26 3,58 -23,71 -260,128 -615,282 -957,349 -353,68 -693,44 -908,-193 -151,-168 -238,-651 -238,-653l-7 -39 36 -18c0,0 149,-73 243,-82 268,-25 663,-77 1034,-147 280,-52 545,-115 726,-184z"/><path class="fil0" d="M11874 3061c91,51 195,103 305,158 620,312 1447,728 1413,1458 -46,989 425,4584 741,7001 62,474 110,840 157,1210l-166 84c-44,-346 -101,-785 -165,-1271 -317,-2424 -789,-6028 -742,-7032 28,-616 -741,-1003 -1317,-1292 -114,-58 -220,-111 -311,-161l85 -155zm2703 10537c12,101 25,226 29,282 5,71 3,118 -6,140 -92,201 -240,343 -416,435 -205,107 -447,148 -683,141 -310,-10 -839,-133 -997,-434l87 -155c147,280 623,404 915,413 209,6 421,-28 597,-121 143,-75 262,-189 336,-352 3,-6 -6,-12 -9,-54 -4,-56 -8,-97 -18,-194l165 -101z"/><path class="fil0" d="M11738 5850c17,-24 50,-29 74,-12 23,17 29,50 12,73 -59,82 -372,171 -754,240 -397,71 -874,124 -1216,128l-4 0c9,124 27,288 75,425 50,142 132,256 272,256 135,0 465,-13 794,-68 204,-34 406,-84 557,-156 26,-13 58,-1 71,25 12,26 1,58 -25,70 -162,77 -374,130 -586,166 -335,55 -673,69 -811,69 -198,-1 -308,-146 -371,-327 -59,-168 -76,-367 -84,-500l-2 -34 31 -16c0,0 31,-15 82,-16 337,-3 807,-56 1198,-126 358,-64 645,-139 687,-197z"/><path class="fil0" d="M8860 6501c48,0 92,20 124,52l0 0c32,32 52,76 52,125 0,48 -20,93 -52,124 -32,32 -76,52 -124,52 -49,0 -93,-20 -125,-52 -32,-31 -52,-76 -52,-124 0,-49 20,-93 52,-125l0 0c32,-32 76,-52 125,-52zm50 127c-13,-13 -31,-21 -50,-21 -20,0 -38,8 -50,21 -13,12 -21,30 -21,50 0,19 8,37 21,50 13,12 30,20 50,20 19,0 37,-8 50,-20 12,-13 20,-31 20,-50 0,-20 -8,-38 -20,-50z"/><path class="fil0" d="M8860 8618c48,0 92,20 124,52l0 0c32,32 52,76 52,124 0,49 -20,93 -52,125 -32,32 -76,52 -124,52 -49,0 -93,-20 -125,-52 -32,-32 -52,-76 -52,-125 0,-48 20,-92 52,-124l0 0c32,-32 76,-52 125,-52zm50 126c-13,-12 -31,-20 -50,-20 -20,0 -38,8 -50,20 -13,13 -21,31 -21,50 0,20 8,38 21,50 13,13 30,21 50,21 19,0 37,-8 50,-21 12,-12 20,-30 20,-50 0,-19 -8,-37 -20,-50z"/><path class="fil0" d="M8860 10735c48,0 92,19 124,51 32,32 52,76 52,125 0,49 -20,93 -52,125l0 0c-32,32 -76,51 -124,51 -49,0 -93,-19 -125,-51l0 0c-32,-32 -52,-76 -52,-125 0,-49 20,-93 52,-125 32,-32 76,-51 125,-51zm50 126c-13,-13 -31,-20 -50,-20 -20,0 -37,7 -50,20 -13,13 -21,31 -21,50 0,20 8,37 21,50 12,13 30,21 50,21 19,0 37,-8 50,-21 12,-13 20,-30 20,-50 0,-19 -8,-37 -20,-50z"/><path class="fil0" d="M8860 12851c48,0 92,20 124,52 32,32 52,76 52,125 0,48 -20,92 -52,124l0 0c-32,32 -76,52 -124,52 -49,0 -93,-20 -125,-52l0 0c-32,-32 -52,-76 -52,-124 0,-49 20,-93 52,-125 32,-32 76,-52 125,-52zm50 127c-13,-13 -31,-21 -50,-21 -20,0 -37,8 -50,21 -13,13 -21,30 -21,50 0,19 8,37 21,50 12,12 30,20 50,20 19,0 37,-8 50,-20 12,-13 20,-31 20,-50 0,-20 -8,-37 -20,-50z"/><path class="fil0" d="M8860 14615c48,0 92,20 124,52 32,32 52,76 52,125 0,48 -20,92 -52,124l0 0c-32,32 -76,52 -124,52 -49,0 -93,-20 -125,-52l0 0c-32,-32 -52,-76 -52,-124 0,-49 20,-93 52,-125 32,-32 76,-52 125,-52zm50 127c-13,-13 -31,-21 -50,-21 -20,0 -37,8 -50,21 -13,12 -21,30 -21,50 0,19 8,37 21,50 12,12 30,20 50,20 19,0 37,-8 50,-20 12,-13 20,-31 20,-50 0,-20 -8,-38 -20,-50z"/><path class="fil0" d="M14580 13486c10,-21 25,-34 40,-48 8,-7 17,-4 17,-9l-64 -559c-205,247 -425,315 -737,412l-31 9c-89,28 -153,113 -186,212 -19,56 -27,116 -24,173l0 0c3,54 17,105 43,143 28,44 74,74 137,77 125,8 311,-45 477,-130 148,-77 277,-177 328,-280zm111 30c-7,7 -15,14 -16,16 -62,125 -209,242 -375,327 -181,94 -388,151 -531,143 -101,-6 -173,-54 -219,-125 -36,-55 -56,-123 -60,-195 -4,-70 6,-144 29,-213 43,-128 130,-240 255,-278l31 -10c301,-93 512,-159 700,-395 5,-6 14,-22 22,-38 20,-37 39,-72 73,-76 36,-4 58,12 63,53l79 692c5,48 -23,74 -51,99z"/><path class="fil0" d="M13989 13316c18,-4 36,-6 52,-6 42,0 81,13 112,37 31,24 53,58 63,100 4,15 6,32 6,48 0,59 -23,117 -61,163 -37,47 -89,82 -147,96 -19,4 -36,7 -52,7 -43,0 -81,-14 -112,-38 -31,-23 -53,-58 -63,-99 -4,-16 -6,-32 -6,-49 0,-58 23,-116 61,-163 37,-46 89,-82 147,-96zm52 100c-9,0 -19,1 -27,3 -35,8 -67,30 -90,59 -23,29 -37,63 -37,97 0,10 1,18 2,24 4,18 13,31 25,41 13,9 29,15 48,15 9,0 18,-1 27,-3 35,-9 66,-31 90,-60 23,-28 37,-63 37,-97 0,-9 -1,-17 -2,-24 -5,-17 -13,-31 -26,-40 -12,-10 -28,-15 -47,-15z"/><path class="fil0" d="M2964 13532c-1,-2 -9,-9 -16,-16 -28,-25 -57,-51 -51,-99l79 -692c5,-41 27,-57 63,-53 34,4 53,39 73,76 8,16 17,32 22,38 188,236 399,302 700,395l31 10c124,38 212,150 255,278 23,69 33,143 29,213 -4,72 -24,140 -60,195 -46,71 -119,119 -219,125 -143,8 -350,-49 -531,-143 -166,-85 -313,-202 -375,-327zm95 -46c51,103 180,203 328,280 166,85 351,138 477,130 63,-3 108,-33 137,-77 26,-38 39,-89 43,-143l0 0c3,-57 -5,-117 -24,-173 -33,-99 -97,-184 -186,-212l-31 -9c-312,-97 -533,-165 -737,-412l-64 559c0,2 51,45 57,57z"/><path class="fil0" d="M3625 13419c-9,-2 -18,-3 -27,-3 -19,0 -35,5 -47,15 -13,9 -22,23 -26,40 -1,7 -2,15 -2,24 0,34 14,69 37,97 24,29 55,51 90,60 9,2 18,3 27,3 19,0 35,-6 47,-15 13,-10 22,-23 26,-41 1,-6 2,-14 2,-24 0,-34 -14,-68 -37,-97 -23,-29 -55,-51 -90,-59zm-27 -109c16,0 34,2 52,6 58,14 110,50 147,96 38,47 61,105 61,163 0,17 -2,33 -6,49 -10,41 -32,76 -63,99 -31,24 -70,38 -112,38 -16,0 -34,-3 -52,-7 -58,-14 -110,-49 -147,-96 -38,-46 -61,-104 -61,-163 0,-16 2,-33 6,-48 10,-42 32,-76 63,-100 31,-24 70,-37 112,-37z"/></g></g><text x="0" y="17654" fill="#000000" font-size="5px" font-weight="bold" font-family="'Helvetica Neue', Helvetica, Arial-Unicode, Arial, Sans-serif">Created by Alexander Panasovsky</text><text x="0" y="17659" fill="#000000" font-size="5px" font-weight="bold" font-family="'Helvetica Neue', Helvetica, Arial-Unicode, Arial, Sans-serif">from the Noun Project</text></svg>